<svg xmlns="http://www.w3.org/2000/svg" width="32.264" height="29.413" viewBox="0 0 32.264 29.413">
  <g id="_x32_75_x2C__Balance_x2C__business_x2C__decision_x2C__investment" transform="translate(-22.014 -42.69)">
    <g id="Group_50162" data-name="Group 50162" transform="translate(22.014 42.69)">
      <path id="Path_106273" data-name="Path 106273" d="M241.95,93.1a1.154,1.154,0,1,0-1.154,1.15A1.154,1.154,0,0,0,241.95,93.1Zm-1.154.228a.229.229,0,1,1,.224-.228A.227.227,0,0,1,240.8,93.329Z" transform="translate(-224.637 -88.554)" fill="#3c4689"/>
      <path id="Path_106274" data-name="Path 106274" d="M53.589,70.724H52.21V68.656a.69.69,0,0,0-.689-.689H48.073V66.587a.69.69,0,0,0-.689-.689H45.329l.039-2.038a.69.69,0,0,0-.687-.7l-4.1-.014L39,51.057a3.917,3.917,0,0,0,3.107-3.826l4.529-.33-3.157,7.371H42.09a.689.689,0,0,0-.689.689,6.116,6.116,0,0,0,12.231,0,.689.689,0,0,0-.689-.689H51.5l-2.686-7.53,2.068-.151a.689.689,0,0,0-.1-1.375l-2.294.167v-2a.689.689,0,1,0-1.379,0v2.1l-5.248.382a3.945,3.945,0,0,0-7.572.735l-5.1.419V45.31a.689.689,0,1,0-1.379,0v1.824l-1.851.152a.689.689,0,1,0,.113,1.374l1.459-.12L24.786,56.2H23.342a.689.689,0,0,0-.689.689,6.221,6.221,0,0,0,6.123,6.249,6.307,6.307,0,0,0,6.2-6.249.689.689,0,0,0-.689-.689H32.81l-3.35-7.821,4.847-.4a3.933,3.933,0,0,0,3.034,3.073L36.29,63.14H31.526a.689.689,0,0,0-.689.689V65.9H28.769a.689.689,0,0,0-.689.689v1.379H24.632a.689.689,0,0,0-.689.689v2.068H22.7a.689.689,0,0,0,0,1.379H53.589a.689.689,0,1,0,0-1.379ZM47.516,59.693a4.742,4.742,0,0,1-4.687-4.042H52.2A4.742,4.742,0,0,1,47.516,59.693Zm-2.534-5.421,2.757-6.436,2.3,6.436ZM37.606,63.92l.673-7.744c.307,2.358.734,5.623,1.007,7.747Zm-8.831-2.159a4.863,4.863,0,0,1-4.695-4.18h9.464A4.914,4.914,0,0,1,28.776,61.761ZM26.251,56.2l2.3-6.438L31.31,56.2Zm9.362-8.962a2.56,2.56,0,1,1,2.563,2.525,2.551,2.551,0,0,1-2.563-2.525Zm-3.4,17.279h4.149a1.383,1.383,0,0,0,1.246.783h1.677a1.381,1.381,0,0,0,1.093-.537,1.465,1.465,0,0,0,.151-.244l3.444.012L43.95,65.9H32.216Zm-2.758,2.758H46.694v.689H29.458Zm-4.137,3.447V69.345H50.831v1.379Z" transform="translate(-22.014 -42.69)" fill="#3c4689"/>
    </g>
  </g>
</svg>
