<svg id="user-4" xmlns="http://www.w3.org/2000/svg" width="32.06" height="32.063" viewBox="0 0 32.06 32.063">
  <path id="Path_106298" data-name="Path 106298" d="M155.756,114.722a3.015,3.015,0,1,0,4.265,0A3.019,3.019,0,0,0,155.756,114.722Zm3.32,3.32a1.68,1.68,0,1,1,0-2.375A1.679,1.679,0,0,1,159.075,118.042Z" transform="translate(-145.865 -107.568)" fill="#3c4689"/>
  <path id="Path_106299" data-name="Path 106299" d="M51.392,50.687H47.8l4.061-4.061a.668.668,0,0,0,0-.94L45.19,38.866a.668.668,0,0,0-.95-.005l-.31.31-1.376-1.376a12.022,12.022,0,1,0-4.723,4.723l1.376,1.376-.31.31a.668.668,0,0,0,.005.95l5.652,5.534H20.668a.668.668,0,0,0,0,1.336H51.392a.668.668,0,0,0,0-1.336ZM24.466,39.542a10.687,10.687,0,1,1,15.113,0A10.7,10.7,0,0,1,24.466,39.542ZM39.107,41.9,41.94,39.07l1.045,1.045-2.834,2.834Zm5.6-1.621,5.745,5.867-4.266,4.266-5.867-5.745Z" transform="translate(-20 -19.961)" fill="#3c4689"/>
  <path id="Path_106300" data-name="Path 106300" d="M84.888,72.516a8.683,8.683,0,1,0-11.2,13.2h0a8.683,8.683,0,0,0,10.12,0h0A8.682,8.682,0,0,0,84.888,72.516ZM74.773,84.836a4.006,4.006,0,0,1,7.95,0A7.354,7.354,0,0,1,74.773,84.836Zm9.122-.938a5.345,5.345,0,0,0-10.294,0,7.347,7.347,0,1,1,10.294,0Z" transform="translate(-66.725 -66.631)" fill="#3c4689"/>
</svg>
