<svg xmlns="http://www.w3.org/2000/svg" width="39" height="26" viewBox="0 0 39 26">
  <g id="_x34_28_x2C__Broker_x2C__Data_x2C__Index_x2C__Market_x2C__Stock" transform="translate(46 1)">
    <g id="Group_50163" data-name="Group 50163" transform="translate(-46 -1)">
      <path id="Path_106278" data-name="Path 106278" d="M80,250h5.571v1.857H80Z" transform="translate(-76.286 -228.643)" fill="#3c4689"/>
      <path id="Path_106279" data-name="Path 106279" d="M150,250h5.571v1.857H150Z" transform="translate(-139.786 -228.643)" fill="#3c4689"/>
      <path id="Path_106280" data-name="Path 106280" d="M220,250h5.571v1.857H220Z" transform="translate(-203.286 -228.643)" fill="#3c4689"/>
      <path id="Path_106281" data-name="Path 106281" d="M290,250h5.571v1.857H290Z" transform="translate(-266.786 -228.643)" fill="#3c4689"/>
      <path id="Path_106282" data-name="Path 106282" d="M360,250h5.571v1.857H360Z" transform="translate(-330.286 -228.643)" fill="#3c4689"/>
      <path id="Path_106283" data-name="Path 106283" d="M80,220h5.571v1.857H80Z" transform="translate(-76.286 -201.429)" fill="#3c4689"/>
      <path id="Path_106284" data-name="Path 106284" d="M150,220h5.571v1.857H150Z" transform="translate(-139.786 -201.429)" fill="#3c4689"/>
      <path id="Path_106285" data-name="Path 106285" d="M220,220h5.571v1.857H220Z" transform="translate(-203.286 -201.429)" fill="#3c4689"/>
      <path id="Path_106286" data-name="Path 106286" d="M290,220h5.571v1.857H290Z" transform="translate(-266.786 -201.429)" fill="#3c4689"/>
      <path id="Path_106287" data-name="Path 106287" d="M360,220h5.571v1.857H360Z" transform="translate(-330.286 -201.429)" fill="#3c4689"/>
      <path id="Path_106288" data-name="Path 106288" d="M150,190h5.571v1.857H150Z" transform="translate(-139.786 -174.214)" fill="#3c4689"/>
      <path id="Path_106289" data-name="Path 106289" d="M220,190h5.571v1.857H220Z" transform="translate(-203.286 -174.214)" fill="#3c4689"/>
      <path id="Path_106290" data-name="Path 106290" d="M290,190h5.571v1.857H290Z" transform="translate(-266.786 -174.214)" fill="#3c4689"/>
      <path id="Path_106291" data-name="Path 106291" d="M360,190h5.571v1.857H360Z" transform="translate(-330.286 -174.214)" fill="#3c4689"/>
      <path id="Path_106292" data-name="Path 106292" d="M220,160h5.571v1.857H220Z" transform="translate(-203.286 -147)" fill="#3c4689"/>
      <path id="Path_106293" data-name="Path 106293" d="M360,160h5.571v1.857H360Z" transform="translate(-330.286 -147)" fill="#3c4689"/>
      <path id="Path_106294" data-name="Path 106294" d="M360,130h5.571v1.857H360Z" transform="translate(-330.286 -119.786)" fill="#3c4689"/>
      <path id="Path_106295" data-name="Path 106295" d="M360,100h5.571v1.857H360Z" transform="translate(-330.286 -92.572)" fill="#3c4689"/>
      <path id="Path_106296" data-name="Path 106296" d="M91.443,47.7l4.938-3.292,2.247,2.247a.929.929,0,0,0,1.2.1l5.86-4.186,2.229,2.229a.929.929,0,0,0,1.274.037L116,38.782V39.3a.929.929,0,1,0,1.857,0c0-2.69.007-2.611-.012-2.735a.925.925,0,0,0-.721-.763c-.062-.013-.845-.143-2.633-.44a.929.929,0,1,0-.3,1.832l.674.112-6.25,5.556L106.441,40.7a.929.929,0,0,0-1.2-.1l-5.86,4.186-2.229-2.229a.929.929,0,0,0-1.172-.116l-5.571,3.714a.929.929,0,1,0,1.03,1.545Z" transform="translate(-85.356 -33.928)" fill="#3c4689"/>
      <path id="Path_106297" data-name="Path 106297" d="M40.929,46H78.071a.929.929,0,1,0,0-1.857H41.857V20.929a.929.929,0,0,0-1.857,0V45.071A.929.929,0,0,0,40.929,46Z" transform="translate(-40 -20)" fill="#3c4689"/>
    </g>
  </g>
</svg>
